<?xml version="1.0" encoding="utf-8"?>
<!-- Generator: Adobe Illustrator 19.2.0, SVG Export Plug-In . SVG Version: 6.00 Build 0)  -->
<svg version="1.1" id="Layer_1" xmlns="http://www.w3.org/2000/svg" xmlns:xlink="http://www.w3.org/1999/xlink" x="0px" y="0px"
	 viewBox="0 0 100 100" style="enable-background:new 0 0 100 100;" xml:space="preserve">
<g id="XMLID_900_">
	<path id="XMLID_904_" d="M78.8,49.2c-1.4,0-2.5,1.1-2.5,2.5v33.9H58.8V71.7c0-1.3-1.1-2.4-2.4-2.4H43.7c-1.4,0-2.5,1.1-2.5,2.4
		v13.8H23.6V52.8c0-1.3-1.1-2.4-2.5-2.4c-1.3,0-2.4,1.1-2.4,2.4V88c0,1.3,1.1,2.4,2.4,2.4h22.5c1.3,0,2.4-1.1,2.4-2.4V74.2h7.8V88
		c0,1.3,1.1,2.4,2.5,2.4h22.4c1.3,0,2.4-1.1,2.4-2.4V51.7C81.2,50.3,80.1,49.2,78.8,49.2L78.8,49.2z M78.8,49.2"/>
	<path id="XMLID_901_" d="M92.3,51.1L72.7,31.5V18.1c0-1.4-1.1-2.5-2.5-2.5c-1.3,0-2.4,1.1-2.4,2.5v8.5L51.7,10.4
		c-0.5-0.5-1.1-0.8-1.7-0.8c-0.7,0-1.3,0.3-1.8,0.8L7.8,50.9c-1,1-1,2.5,0,3.4c0.9,1,2.5,1,3.4,0L50,15.5l38.7,39.1
		c0.4,0.4,1,0.6,1.8,0.6c0.7,0,1.3-0.2,1.8-0.6C93.2,53.7,93.3,52.1,92.3,51.1L92.3,51.1z M92.3,51.1"/>
</g>
</svg>
