<?xml version="1.0" encoding="utf-8"?>
<!-- Generator: Adobe Illustrator 19.2.0, SVG Export Plug-In . SVG Version: 6.00 Build 0)  -->
<svg version="1.1" id="Layer_1" xmlns="http://www.w3.org/2000/svg" xmlns:xlink="http://www.w3.org/1999/xlink" x="0px" y="0px"
	 viewBox="0 0 100 100" style="enable-background:new 0 0 100 100;" xml:space="preserve">
<path id="XMLID_8_" d="M12.3,10.8v60.4v18.1h75.5V71.1V10.8H12.3z M15.3,13.8h69.4v40.3L69.1,39.8c-0.3-0.3-0.7-0.4-1.1-0.4
	c-0.4,0-0.8,0.2-1,0.5L52.2,56.1L45.1,49c-0.6-0.6-1.5-0.6-2.1-0.1L17.7,71.1h-2.4V13.8z M84.7,86.2H15.3V74.2h69.4V86.2z
	 M22.3,71.1l21.6-19l15.6,15.6c0.6,0.6,1.5,0.6,2.1,0c0.6-0.6,0.6-1.5,0-2.1l-7.3-7.3l13.9-15.2l16.5,15.1v12.9H22.3z"/>
</svg>
