<?xml version="1.0" encoding="utf-8"?>
<!-- Generator: Adobe Illustrator 19.2.0, SVG Export Plug-In . SVG Version: 6.00 Build 0)  -->
<svg version="1.1" id="Layer_1" xmlns="http://www.w3.org/2000/svg" xmlns:xlink="http://www.w3.org/1999/xlink" x="0px" y="0px"
	 viewBox="0 0 100 100" style="enable-background:new 0 0 100 100;" xml:space="preserve">
<g id="XMLID_575_">
	<path id="XMLID_618_" d="M90.6,71.1H9.4c-1.2,0-2.2,1-2.2,2.2s1,2.2,2.2,2.2h81.3c1.2,0,2.2-1,2.2-2.2S91.9,71.1,90.6,71.1z"/>
	<path id="XMLID_603_" d="M90.6,47.8H9.4c-1.2,0-2.2,1-2.2,2.2c0,1.2,1,2.2,2.2,2.2h81.3c1.2,0,2.2-1,2.2-2.2
		C92.8,48.8,91.9,47.8,90.6,47.8z"/>
	<path id="XMLID_602_" d="M9.4,28.9h81.3c1.2,0,2.2-1,2.2-2.2s-1-2.2-2.2-2.2H9.4c-1.2,0-2.2,1-2.2,2.2S8.1,28.9,9.4,28.9z"/>
</g>
</svg>
