<?xml version="1.0" encoding="utf-8"?>
<!-- Generator: Adobe Illustrator 19.2.0, SVG Export Plug-In . SVG Version: 6.00 Build 0)  -->
<svg version="1.1" id="Layer_1" xmlns="http://www.w3.org/2000/svg" xmlns:xlink="http://www.w3.org/1999/xlink" x="0px" y="0px"
	 viewBox="0 0 100 100" style="enable-background:new 0 0 100 100;" xml:space="preserve">
<g id="XMLID_997_">
	<path id="XMLID_181_" d="M88,17.9l-25-7.1c0,0,0,0,0,0c-0.1,0-0.1,0-0.2,0c0,0,0,0-0.1,0c-0.1,0-0.1,0-0.2,0c0,0,0,0,0,0
		c-0.1,0-0.1,0-0.2,0c0,0,0,0-0.1,0c-0.1,0-0.1,0-0.2,0c0,0,0,0,0,0l-24.5,7l-24.5-7c-0.5-0.2-1.1,0-1.6,0.3s-0.7,0.9-0.7,1.4v67.8
		c0,0.8,0.5,1.5,1.3,1.7l25,7.1c0,0,0,0,0,0c0.1,0,0.1,0,0.2,0c0,0,0,0,0.1,0c0.1,0,0.1,0,0.2,0s0.1,0,0.2,0c0,0,0,0,0.1,0
		c0.1,0,0.1,0,0.2,0c0,0,0,0,0,0l24.5-7l24.5,7c0.2,0,0.3,0.1,0.5,0.1c0.4,0,0.8-0.1,1.1-0.4c0.4-0.3,0.7-0.9,0.7-1.4V19.6
		C89.2,18.8,88.7,18.1,88,17.9z M39.3,21l21.4-6.1V79l-21.4,6.1V21z M14.3,14.9L35.7,21v64.2L14.3,79V14.9z M85.7,85.1L64.3,79V14.9
		L85.7,21V85.1z"/>
	<path id="XMLID_72_" d="M30.9,74.9l-10.8-3.1c-0.9-0.3-1.9,0.3-2.2,1.2c-0.3,0.9,0.3,1.9,1.2,2.2l10.8,3.1c0.2,0,0.3,0.1,0.5,0.1
		c0.8,0,1.5-0.5,1.7-1.3C32.4,76.1,31.8,75.1,30.9,74.9z"/>
	<path id="XMLID_71_" d="M30.9,66l-10.8-3.1c-0.9-0.3-1.9,0.3-2.2,1.2c-0.3,0.9,0.3,1.9,1.2,2.2l10.8,3.1c0.2,0,0.3,0.1,0.5,0.1
		c0.8,0,1.5-0.5,1.7-1.3C32.4,67.2,31.8,66.3,30.9,66z"/>
	<path id="XMLID_29_" d="M30.9,57.1L20.1,54c-0.9-0.3-1.9,0.3-2.2,1.2c-0.3,0.9,0.3,1.9,1.2,2.2l10.8,3.1c0.2,0,0.3,0.1,0.5,0.1
		c0.8,0,1.5-0.5,1.7-1.3C32.4,58.4,31.8,57.4,30.9,57.1z"/>
	<path id="XMLID_168_" d="M30.9,24.8l-10.8-3.1c-0.5-0.2-1.1,0-1.6,0.3c-0.4,0.3-0.7,0.9-0.7,1.4v23.4c0,0.8,0.5,1.5,1.3,1.7
		l10.8,3.1c0.2,0,0.3,0.1,0.5,0.1c0.4,0,0.8-0.1,1.1-0.4c0.4-0.3,0.7-0.9,0.7-1.4V26.5C32.2,25.7,31.7,25,30.9,24.8z M28.6,47.6
		l-7.2-2.1V25.8l7.2,2.1V47.6z"/>
	<path id="XMLID_26_" d="M44.6,28.3c0.2,0,0.3,0,0.5-0.1l10.8-3.1c0.9-0.3,1.5-1.3,1.2-2.2s-1.3-1.5-2.2-1.2l-10.8,3.1
		c-0.9,0.3-1.5,1.3-1.2,2.2C43.1,27.8,43.8,28.3,44.6,28.3z"/>
	<path id="XMLID_25_" d="M54.9,71.8l-10.8,3.1c-0.9,0.3-1.5,1.3-1.2,2.2c0.2,0.8,0.9,1.3,1.7,1.3c0.2,0,0.3,0,0.5-0.1l10.8-3.1
		c0.9-0.3,1.5-1.3,1.2-2.2C56.8,72.1,55.8,71.5,54.9,71.8z"/>
	<path id="XMLID_24_" d="M54.9,62.9L44.1,66c-0.9,0.3-1.5,1.3-1.2,2.2c0.2,0.8,0.9,1.3,1.7,1.3c0.2,0,0.3,0,0.5-0.1l10.8-3.1
		c0.9-0.3,1.5-1.3,1.2-2.2C56.8,63.2,55.8,62.7,54.9,62.9z"/>
	<path id="XMLID_23_" d="M54.9,54l-10.8,3.1c-0.9,0.3-1.5,1.3-1.2,2.2c0.2,0.8,0.9,1.3,1.7,1.3c0.2,0,0.3,0,0.5-0.1l10.8-3.1
		c0.9-0.3,1.5-1.3,1.2-2.2C56.8,54.3,55.8,53.8,54.9,54z"/>
	<path id="XMLID_22_" d="M54.9,45.2l-10.8,3.1c-0.9,0.3-1.5,1.3-1.2,2.2c0.2,0.8,0.9,1.3,1.7,1.3c0.2,0,0.3,0,0.5-0.1l10.8-3.1
		c0.9-0.3,1.5-1.3,1.2-2.2C56.8,45.4,55.8,44.9,54.9,45.2z"/>
	<path id="XMLID_20_" d="M69.1,25.1l10.8,3.1c0.2,0,0.3,0.1,0.5,0.1c0.8,0,1.5-0.5,1.7-1.3c0.3-0.9-0.3-1.9-1.2-2.2l-10.8-3.1
		c-0.9-0.3-1.9,0.3-2.2,1.2C67.6,23.9,68.2,24.9,69.1,25.1z"/>
	<path id="XMLID_19_" d="M69.1,34l10.8,3.1c0.2,0,0.3,0.1,0.5,0.1c0.8,0,1.5-0.5,1.7-1.3c0.3-0.9-0.3-1.9-1.2-2.2l-10.8-3.1
		c-0.9-0.3-1.9,0.3-2.2,1.2C67.6,32.8,68.2,33.7,69.1,34z"/>
	<path id="XMLID_40_" d="M69.1,42.9L79.9,46c0.2,0,0.3,0.1,0.5,0.1c0.8,0,1.5-0.5,1.7-1.3c0.3-0.9-0.3-1.9-1.2-2.2l-10.8-3.1
		c-0.9-0.3-1.9,0.3-2.2,1.2C67.6,41.6,68.2,42.6,69.1,42.9z"/>
	<path id="XMLID_79_" d="M69.1,75.2l10.8,3.1c0.2,0,0.3,0.1,0.5,0.1c0.4,0,0.8-0.1,1.1-0.4c0.4-0.3,0.7-0.9,0.7-1.4V53.1
		c0-0.8-0.5-1.5-1.3-1.7l-10.8-3.1c-0.5-0.2-1.1,0-1.6,0.3c-0.4,0.3-0.7,0.9-0.7,1.4v23.4C67.8,74.3,68.3,75,69.1,75.2z M71.4,52.4
		l7.2,2.1v19.8l-7.2-2.1V52.4z"/>
</g>
</svg>
