<?xml version="1.0" encoding="utf-8"?>
<!-- Generator: Adobe Illustrator 19.2.0, SVG Export Plug-In . SVG Version: 6.00 Build 0)  -->
<svg version="1.1" id="Layer_1" xmlns="http://www.w3.org/2000/svg" xmlns:xlink="http://www.w3.org/1999/xlink" x="0px" y="0px"
	 viewBox="0 0 100 100" style="enable-background:new 0 0 100 100;" xml:space="preserve">
<g id="XMLID_18_">
	<path id="XMLID_4_" d="M80,62.9c-0.4-1.2-1.7-1.9-2.9-1.5l-3,1c1.9-3.8,2.8-8.1,2.8-12.4c0-15.7-12.8-28.5-28.5-28.5
		c-15.7,0-28.5,12.8-28.5,28.5s12.8,28.5,28.5,28.5c1.3,0,2.3-1,2.3-2.3c0-1.3-1-2.3-2.3-2.3c-13.1,0-23.8-10.7-23.8-23.8
		c0-13.1,10.7-23.8,23.8-23.8c13.1,0,23.8,10.7,23.8,23.8c0,3.6-0.8,7.2-2.4,10.4l-1-3.2c-0.4-1.2-1.7-1.9-2.9-1.5
		c-1.2,0.4-1.9,1.7-1.5,2.9l2.8,8.5c0.3,1,1.2,1.6,2.2,1.6c0.2,0,0.5,0,0.7-0.1l8.5-2.8C79.7,65.5,80.4,64.1,80,62.9z"/>
</g>
</svg>
