<?xml version="1.0" encoding="utf-8"?>
<!-- Generator: Adobe Illustrator 19.2.0, SVG Export Plug-In . SVG Version: 6.00 Build 0)  -->
<svg version="1.1" id="Layer_1" xmlns="http://www.w3.org/2000/svg" xmlns:xlink="http://www.w3.org/1999/xlink" x="0px" y="0px"
	 viewBox="0 0 100 100" style="enable-background:new 0 0 100 100;" xml:space="preserve">
<g id="XMLID_999_">
	<path id="XMLID_9_" d="M61.3,66.1c-6.3,0-11.4,5.1-11.4,11.4C49.8,83.8,55,89,61.3,89s11.4-5.1,11.4-11.4S67.6,66.1,61.3,66.1z
		 M61.3,85.7c-4.5,0-8.2-3.7-8.2-8.2s3.7-8.2,8.2-8.2c4.5,0,8.2,3.7,8.2,8.2C69.5,82.1,65.8,85.7,61.3,85.7z"/>
	<path id="XMLID_6_" d="M41.8,40.6c0.4,0,0.8-0.2,1.1-0.5l9.6-9.6c2.1,2.1,5,3.5,8.2,3.5c6.3,0,11.4-5.1,11.4-11.4S67.1,11,60.8,11
		s-11.4,5.1-11.4,11.4c0,1.9,0.5,3.7,1.3,5.3l-10,10c-0.6,0.6-0.6,1.7,0,2.3C41,40.4,41.4,40.6,41.8,40.6z M60.8,14.3
		c4.5,0,8.2,3.7,8.2,8.2s-3.7,8.2-8.2,8.2c-4.5,0-8.2-3.7-8.2-8.2S56.2,14.3,60.8,14.3z"/>
	<path id="XMLID_5_" d="M55.7,67.8l-9.5-9.5c2.4-2.1,4-5.2,4-8.7c0-6.3-5.1-11.4-11.4-11.4s-11.4,5.1-11.4,11.4S32.4,61,38.7,61
		c1.7,0,3.2-0.4,4.6-1l10,10c0.3,0.3,0.7,0.5,1.1,0.5c0.4,0,0.8-0.2,1.1-0.5C56.3,69.5,56.3,68.4,55.7,67.8z M30.5,49.6
		c0-4.5,3.7-8.2,8.2-8.2c4.5,0,8.2,3.7,8.2,8.2s-3.7,8.2-8.2,8.2S30.5,54.1,30.5,49.6z"/>
</g>
</svg>
