<?xml version="1.0" encoding="utf-8"?>
<!-- Generator: Adobe Illustrator 19.2.0, SVG Export Plug-In . SVG Version: 6.00 Build 0)  -->
<svg version="1.1" id="Layer_1" xmlns="http://www.w3.org/2000/svg" xmlns:xlink="http://www.w3.org/1999/xlink" x="0px" y="0px"
	 viewBox="0 0 100 100" style="enable-background:new 0 0 100 100;" xml:space="preserve">
<g id="XMLID_63_">
	<g id="XMLID_65_">
		<path id="XMLID_343_" d="M42.4,63c-0.8-0.6-2-0.5-2.6,0.4c-3.1,4.1-7.8,6.5-13,6.5h-5.1c-1,0-1.9,0.8-1.9,1.9c0,1,0.8,1.9,1.9,1.9
			h5.1c3.2,0,6.2-0.7,9-2.2c2.7-1.4,5.1-3.4,6.9-5.8C43.3,64.8,43.2,63.6,42.4,63z"/>
		<path id="XMLID_291_" d="M47.6,36.8c0.3,0.3,0.7,0.4,1.1,0.4c0.6,0,1.1-0.2,1.5-0.7c3.1-4,7.8-6.3,12.8-6.3h10.8L68.1,36
			c-0.7,0.7-0.7,1.9,0,2.6c0.4,0.4,0.8,0.6,1.3,0.6c0.5,0,1-0.2,1.3-0.6l9-9c0.7-0.7,0.7-1.9,0-2.6l-9-9c-0.7-0.7-1.9-0.7-2.6,0
			c-0.7,0.7-0.7,1.9,0,2.6l5.8,5.8H63c-6.2,0-12,2.8-15.8,7.7C46.7,35,46.8,36.2,47.6,36.8z"/>
		<path id="XMLID_69_" d="M70.7,61.4c-0.7-0.7-1.9-0.7-2.6,0s-0.7,1.9,0,2.6l5.8,5.8H63c-8.9,0-16.2-7.3-16.2-16.2v-7.2
			c0-11-8.9-19.9-19.9-19.9h-5.1c-1,0-1.9,0.8-1.9,1.9c0,1,0.8,1.9,1.9,1.9h5.1c8.9,0,16.2,7.3,16.2,16.2v7.2
			c0,11,8.9,19.9,19.9,19.9h10.8l-5.8,5.8c-0.7,0.7-0.7,1.9,0,2.6c0.4,0.4,0.8,0.6,1.3,0.6s1-0.2,1.3-0.6l9-9c0.7-0.7,0.7-1.9,0-2.6
			L70.7,61.4z"/>
	</g>
</g>
</svg>
