<?xml version="1.0" encoding="utf-8"?>
<!-- Generator: Adobe Illustrator 19.2.0, SVG Export Plug-In . SVG Version: 6.00 Build 0)  -->
<svg version="1.1" id="Layer_1" xmlns="http://www.w3.org/2000/svg" xmlns:xlink="http://www.w3.org/1999/xlink" x="0px" y="0px"
	 viewBox="0 0 65.8 15.3" style="enable-background:new 0 0 65.8 15.3;" xml:space="preserve">
<style type="text/css">
	.st0{fill:#FFFFFF;}
	.st1{fill:#FBCD48;}
</style>
<g>
	<path id="XMLID_112_" class="st0" d="M24.6,3.8h-0.3c-1.9,0-3.6,1.4-3.7,4.2c-0.1,2.5,1.2,4.3,3.3,4.3c1.7,0,2.4-1.3,2.4-1.3
		c0.1,0.9,0.5,1.1,1.4,1.1V4.9V3.7L24.6,3.8L24.6,3.8z M26.2,8.7c0,1.2-0.6,2.3-2,2.3c-1.2,0-2.1-0.9-2.1-3c0.1-2,1-2.9,2.2-2.9
		c0.1,0,0.2,0,0.3,0h1.6V8.7z"/>
	<path id="XMLID_117_" class="st0" d="M12.2,3.7l0,5.8c0,0.8-0.7,1.3-1.5,1.3c-0.9,0-1.5-0.4-1.5-1.3l0-4.3c0-1.2-0.7-1.5-1.4-1.5
		v6.2c0,1.6,1.3,2.3,2.9,2.3c1.5,0,3-0.8,3-2.3l0-4.5C13.6,4.1,13.2,3.7,12.2,3.7z"/>
	<path id="XMLID_119_" class="st0" d="M15.6,6.9v5.2l1.4,0V6.8c0-1.1,0.6-1.8,1.6-1.8h0.4c1.2,0,1.4-0.7,1.4-1.4h-1.9
		C16.8,3.7,15.6,4.7,15.6,6.9z"/>
	<path id="XMLID_120_" class="st0" d="M4.1,7.4L2.4,6.9C1.9,6.8,1.5,6.6,1.5,6c0-0.6,0.4-0.9,1.1-0.9h1.5c0.7,0,1.5-0.2,1.5-1.4
		l-2.9,0C1,3.7,0,4.6,0,6c0,1.2,0.7,1.9,2.1,2.3l1.5,0.4c0.6,0.2,0.8,0.6,0.8,1c0,0.6-0.4,1-1.3,1l-2.8,0v1.4h2.9
		c1.8,0,2.8-1,2.8-2.3C5.9,8.5,5.4,7.8,4.1,7.4z"/>
	<path id="XMLID_172_" class="st0" d="M35.5,13.9C35.4,13.9,35.4,13.9,35.5,13.9c-0.7,0.7-1.7,1.1-2.1,1.2c0,0,0,0,0,0c0,0,0,0,0,0
		c0.1,0,0.5,0.3,1.2-0.1C35.1,14.9,35.3,14.5,35.5,13.9C35.5,14,35.5,13.9,35.5,13.9z"/>
	<path id="XMLID_183_" class="st0" d="M35.6,13c-0.5,0.4-1.2,0.7-2,1c-0.8,0.3-1.8,0.6-2.7,0.7c0,0,0,0,0,0c0,0,0,0,0,0
		c0.2,0.1,0.4,0.2,0.6,0.2c0.3,0,0.7,0,1.1-0.1c0.4-0.1,0.8-0.3,1.2-0.5c0.4-0.2,0.8-0.4,1.1-0.7C35.2,13.5,35.5,13.2,35.6,13
		C35.7,13,35.6,13,35.6,13z"/>
	<path id="XMLID_184_" class="st0" d="M35.5,12.5C35.6,12.4,35.6,12.4,35.5,12.5c-0.8,0.3-2.6,0.6-3.7,0.8c-1,0.1-1.8,0.2-2.2,0.2
		l-0.2,0c0,0,0,0,0,0c0,0,0,0,0,0c0.1,0.1,0.3,0.4,0.9,0.4c0.6,0.1,1.5-0.1,2.7-0.4C33.9,13.3,35,12.8,35.5,12.5z"/>
	<path id="XMLID_185_" class="st0" d="M31.5,3.5C31.7,3.7,32,3.9,32.3,4l0,0c0.1,0,5.5,1.5,6.9,1.9c0.6,0.2,1.1,0.3,1.3,0.4
		c0,0,0,0,0,0c0,0,0,0,0,0c-0.9-0.4-6.4-2.6-8.5-3.5l-0.9-0.4c0,0,0,0-0.1,0c0,0,0,0,0,0c0,0.1,0.1,0.5,0.2,0.8
		C31.4,3.3,31.5,3.4,31.5,3.5z"/>
	<path id="XMLID_186_" class="st0" d="M31.8,1.2c0.1,0.1,0.2,0.2,0.4,0.4c0.1,0,0.1,0.1,0.2,0.1L32.9,2c0.3,0.2,4.4,2.2,5,2.5
		c0.7,0.4,1.4,0.7,1.7,0.9c0,0,0,0,0,0c-0.8-0.5-3.7-2.5-5.9-3.9l-1.5-1L32,0.3L31.5,0c0,0,0,0-0.1,0c0,0,0,0,0,0
		c0,0.1,0,0.5,0.1,0.8C31.6,1,31.7,1.1,31.8,1.2z"/>
	<path id="XMLID_187_" class="st0" d="M40.9,7.4c-0.3,0-0.8,0-1.5,0c-0.8,0-1.7,0-2.6,0c-1.2,0-3.1,0-3.1,0c0,0,0,0,0,0c0,0,0,0,0,0
		c0,0.1,0.1,0.3,0.3,0.4c0.2,0.3,0.5,0.4,0.8,0.4c0,0,0.1,0,0.1,0c0,0,0.1,0,0.1,0C35,8.3,40.5,7.5,40.9,7.4
		C40.9,7.4,40.9,7.4,40.9,7.4C40.9,7.4,40.9,7.4,40.9,7.4z"/>
	<path id="XMLID_188_" class="st0" d="M41.2,6.9c-0.7-0.1-9.4-1.8-9.4-1.8c0,0,0,0,0,0c0,0,0,0,0,0.1c0.1,0.5,0.5,0.9,1.1,1.1
		c0.1,0,0.1,0,0.2,0C33,6.3,40.4,6.9,41.2,6.9C41.2,6.9,41.2,6.9,41.2,6.9C41.2,6.9,41.2,6.9,41.2,6.9z"/>
	<path id="XMLID_189_" class="st0" d="M38.7,10.9L38.7,10.9c-0.6,0.5-1.4,1.2-2.2,2c-0.1,0.1-0.1,0.2-0.1,0.3
		c-0.1,0.2-0.2,0.6-0.2,0.6c0,0.1,0,0.1,0.1,0C36.8,13.1,38.3,11.4,38.7,10.9C38.7,10.9,38.7,10.9,38.7,10.9z"/>
	<path id="XMLID_190_" class="st0" d="M40.4,8c-0.3,0.1-1.7,0.4-2.8,0.8c-1,0.3-2.1,0.6-2.1,0.6c-0.1,0-0.1,0.1-0.1,0.1
		c0,0,0.1,0.2,0.2,0.3C35.7,10,36,10,36.2,9.9C36.2,9.9,40.3,8.2,40.4,8C40.5,8,40.5,8,40.4,8C40.5,8,40.4,8,40.4,8z"/>
	<path id="XMLID_191_" class="st0" d="M37.7,10.2c-0.5,0.3-1.1,0.7-1.4,0.9c0,0-0.1,0-0.1,0.1c0,0,0,0.1,0,0.2
		c0,0.5,0.2,0.4,0.5,0.2l0,0c1-0.8,2.8-2.4,3.2-2.8c0,0,0,0,0-0.1C39.6,9.1,38.6,9.7,37.7,10.2z"/>
	<g id="XMLID_21_">
		<path id="XMLID_192_" class="st1" d="M48.6,4.8c-0.2,0-0.3,0.1-0.3,0.2l-1.4,2.5L45.5,5c-0.1-0.1-0.2-0.2-0.3-0.2
			c-0.2,0-0.4,0.2-0.4,0.4v3.7c0,0.2,0.2,0.4,0.4,0.4c0.2,0,0.4-0.2,0.4-0.4V6.5l1,1.8c0.1,0.1,0.2,0.2,0.3,0.2s0.3-0.1,0.3-0.2
			l1-1.8v2.4c0,0.2,0.2,0.4,0.4,0.4c0.2,0,0.4-0.2,0.4-0.4V5.2C49,5,48.8,4.8,48.6,4.8z"/>
		<path id="XMLID_193_" class="st1" d="M51.3,4.5l0.6-0.6c0.1-0.1,0.1-0.3,0-0.4c-0.1-0.1-0.3-0.1-0.4,0l-0.6,0.7
			c-0.1,0.1-0.1,0.2,0,0.3C51,4.6,51.1,4.6,51.3,4.5z"/>
		<path id="XMLID_194_" class="st1" d="M52.5,4.8c-0.2,0-0.4,0.2-0.4,0.4v2.6c0,0.4-0.1,0.9-0.9,0.9c-0.7,0-0.9-0.5-0.9-0.9V5.2
			c0-0.2-0.2-0.4-0.4-0.4S49.6,5,49.6,5.2v2.6c0,0.7,0.3,1.5,1.6,1.5c1.3,0,1.6-0.8,1.6-1.5V5.2C52.9,5,52.7,4.8,52.5,4.8z"/>
		<path id="XMLID_195_" class="st1" d="M54.2,5.9c0-0.3,0.2-0.5,0.7-0.5c0.4,0,0.7,0.1,0.9,0.3c0.1,0.1,0.2,0.1,0.3,0.1
			c0.2,0,0.3-0.2,0.3-0.3c0-0.1,0-0.1-0.1-0.2c-0.3-0.4-0.8-0.6-1.5-0.6c-1,0-1.5,0.5-1.5,1.2c0,1.6,2.4,1.1,2.4,2.1
			c0,0.4-0.3,0.6-0.9,0.6c-0.4,0-0.8-0.2-1.1-0.5C53.8,8.1,53.7,8,53.6,8c-0.2,0-0.3,0.2-0.3,0.4c0,0.1,0,0.1,0.1,0.2
			c0.3,0.4,0.9,0.8,1.6,0.8c1.1,0,1.6-0.5,1.6-1.3C56.6,6.4,54.2,6.8,54.2,5.9z"/>
		<path id="XMLID_196_" class="st1" d="M57.4,4.8C57.2,4.8,57,5,57,5.2v3.7c0,0.2,0.2,0.4,0.4,0.4s0.4-0.2,0.4-0.4V5.2
			C57.7,5,57.6,4.8,57.4,4.8z"/>
		<path id="XMLID_197_" class="st1" d="M61.5,8.1c-0.1,0-0.2,0-0.3,0.1c-0.3,0.3-0.6,0.4-1,0.4C59.4,8.6,59,8.2,59,7
			c0-1.1,0.4-1.6,1.3-1.6c0.5,0,0.8,0.2,1,0.5C61.3,6,61.4,6,61.5,6c0.2,0,0.3-0.2,0.3-0.3c0-0.1,0-0.1-0.1-0.2
			c-0.3-0.4-0.8-0.7-1.6-0.7c-1.3,0-2,0.7-2,2.3c0,1.6,0.7,2.3,2,2.3c0.7,0,1.3-0.3,1.6-0.7c0-0.1,0.1-0.1,0.1-0.2
			C61.9,8.2,61.7,8.1,61.5,8.1z"/>
		<path id="XMLID_200_" class="st1" d="M65.8,8.8L64.3,5c0-0.1-0.1-0.2-0.3-0.2c-0.2,0-0.3,0.1-0.3,0.2l-1.5,3.7c0,0,0,0.1,0,0.1
			c0,0.2,0.2,0.4,0.4,0.4c0.2,0,0.3-0.1,0.3-0.2l0.4-0.9h1.6L65.1,9c0.1,0.1,0.2,0.2,0.3,0.2c0.2,0,0.4-0.2,0.4-0.4
			C65.8,8.8,65.8,8.8,65.8,8.8z M63.4,7.4L63.9,6l0.5,1.4H63.4z"/>
	</g>
</g>
</svg>
